<?xml version="1.0" encoding="utf-8" standalone="no"?>
<!DOCTYPE svg PUBLIC "-//W3C//DTD SVG 1.1//EN"
  "http://www.w3.org/Graphics/SVG/1.1/DTD/svg11.dtd">
<svg xmlns:xlink="http://www.w3.org/1999/xlink" width="864pt" height="432pt" viewBox="0 0 864 432" xmlns="http://www.w3.org/2000/svg" version="1.1">
 <metadata>
  <rdf:RDF xmlns:dc="http://purl.org/dc/elements/1.1/" xmlns:cc="http://creativecommons.org/ns#" xmlns:rdf="http://www.w3.org/1999/02/22-rdf-syntax-ns#">
   <cc:Work>
    <dc:type rdf:resource="http://purl.org/dc/dcmitype/StillImage"/>
    <dc:date>2024-02-16T10:57:53.202555</dc:date>
    <dc:format>image/svg+xml</dc:format>
    <dc:creator>
     <cc:Agent>
      <dc:title>Matplotlib v3.8.3, https://matplotlib.org/</dc:title>
     </cc:Agent>
    </dc:creator>
   </cc:Work>
  </rdf:RDF>
 </metadata>
 <defs>
  <style type="text/css">*{stroke-linejoin: round; stroke-linecap: butt}</style>
 </defs>
 <g id="figure_1">
  <g id="patch_1">
   <path d="M 0 432 
L 864 432 
L 864 0 
L 0 0 
z
" style="fill: #ffffff"/>
  </g>
  <g id="axes_1">
   <g id="patch_2">
    <path d="M 108 384.48 
L 777.6 384.48 
L 777.6 51.84 
L 108 51.84 
z
" style="fill: #ffffff"/>
   </g>
   <g id="matplotlib.axis_1">
    <g id="xtick_1">
     <g id="line2d_1">
      <defs>
       <path id="m5d120834f3" d="M 0 0 
L 0 3.5 
" style="stroke: #000000; stroke-width: 0.8"/>
      </defs>
      <g>
       <use xlink:href="#m5d120834f3" x="121.865455" y="384.48" style="stroke: #000000; stroke-width: 0.8"/>
      </g>
     </g>
     <g id="text_1">
      <!-- 2014 -->
      <g transform="translate(109.140455 399.078438) scale(0.1 -0.1)">
       <defs>
        <path id="DejaVuSans-32" d="M 1228 531 
L 3431 531 
L 3431 0 
L 469 0 
L 469 531 
Q 828 903 1448 1529 
Q 2069 2156 2228 2338 
Q 2531 2678 2651 2914 
Q 2772 3150 2772 3378 
Q 2772 3750 2511 3984 
Q 2250 4219 1831 4219 
Q 1534 4219 1204 4116 
Q 875 4013 500 3803 
L 500 4441 
Q 881 4594 1212 4672 
Q 1544 4750 1819 4750 
Q 2544 4750 2975 4387 
Q 3406 4025 3406 3419 
Q 3406 3131 3298 2873 
Q 3191 2616 2906 2266 
Q 2828 2175 2409 1742 
Q 1991 1309 1228 531 
z
" transform="scale(0.015625)"/>
        <path id="DejaVuSans-30" d="M 2034 4250 
Q 1547 4250 1301 3770 
Q 1056 3291 1056 2328 
Q 1056 1369 1301 889 
Q 1547 409 2034 409 
Q 2525 409 2770 889 
Q 3016 1369 3016 2328 
Q 3016 3291 2770 3770 
Q 2525 4250 2034 4250 
z
M 2034 4750 
Q 2819 4750 3233 4129 
Q 3647 3509 3647 2328 
Q 3647 1150 3233 529 
Q 2819 -91 2034 -91 
Q 1250 -91 836 529 
Q 422 1150 422 2328 
Q 422 3509 836 4129 
Q 1250 4750 2034 4750 
z
" transform="scale(0.015625)"/>
        <path id="DejaVuSans-31" d="M 794 531 
L 1825 531 
L 1825 4091 
L 703 3866 
L 703 4441 
L 1819 4666 
L 2450 4666 
L 2450 531 
L 3481 531 
L 3481 0 
L 794 0 
L 794 531 
z
" transform="scale(0.015625)"/>
        <path id="DejaVuSans-34" d="M 2419 4116 
L 825 1625 
L 2419 1625 
L 2419 4116 
z
M 2253 4666 
L 3047 4666 
L 3047 1625 
L 3713 1625 
L 3713 1100 
L 3047 1100 
L 3047 0 
L 2419 0 
L 2419 1100 
L 313 1100 
L 313 1709 
L 2253 4666 
z
" transform="scale(0.015625)"/>
       </defs>
       <use xlink:href="#DejaVuSans-32"/>
       <use xlink:href="#DejaVuSans-30" x="63.623047"/>
       <use xlink:href="#DejaVuSans-31" x="127.246094"/>
       <use xlink:href="#DejaVuSans-34" x="190.869141"/>
      </g>
     </g>
    </g>
    <g id="xtick_2">
     <g id="line2d_2">
      <g>
       <use xlink:href="#m5d120834f3" x="183.583636" y="384.48" style="stroke: #000000; stroke-width: 0.8"/>
      </g>
     </g>
     <g id="text_2">
      <!-- 2015 -->
      <g transform="translate(170.858636 399.078438) scale(0.1 -0.1)">
       <defs>
        <path id="DejaVuSans-35" d="M 691 4666 
L 3169 4666 
L 3169 4134 
L 1269 4134 
L 1269 2991 
Q 1406 3038 1543 3061 
Q 1681 3084 1819 3084 
Q 2600 3084 3056 2656 
Q 3513 2228 3513 1497 
Q 3513 744 3044 326 
Q 2575 -91 1722 -91 
Q 1428 -91 1123 -41 
Q 819 9 494 109 
L 494 744 
Q 775 591 1075 516 
Q 1375 441 1709 441 
Q 2250 441 2565 725 
Q 2881 1009 2881 1497 
Q 2881 1984 2565 2268 
Q 2250 2553 1709 2553 
Q 1456 2553 1204 2497 
Q 953 2441 691 2322 
L 691 4666 
z
" transform="scale(0.015625)"/>
       </defs>
       <use xlink:href="#DejaVuSans-32"/>
       <use xlink:href="#DejaVuSans-30" x="63.623047"/>
       <use xlink:href="#DejaVuSans-31" x="127.246094"/>
       <use xlink:href="#DejaVuSans-35" x="190.869141"/>
      </g>
     </g>
    </g>
    <g id="xtick_3">
     <g id="line2d_3">
      <g>
       <use xlink:href="#m5d120834f3" x="245.301818" y="384.48" style="stroke: #000000; stroke-width: 0.8"/>
      </g>
     </g>
     <g id="text_3">
      <!-- 2016 -->
      <g transform="translate(232.576818 399.078438) scale(0.1 -0.1)">
       <defs>
        <path id="DejaVuSans-36" d="M 2113 2584 
Q 1688 2584 1439 2293 
Q 1191 2003 1191 1497 
Q 1191 994 1439 701 
Q 1688 409 2113 409 
Q 2538 409 2786 701 
Q 3034 994 3034 1497 
Q 3034 2003 2786 2293 
Q 2538 2584 2113 2584 
z
M 3366 4563 
L 3366 3988 
Q 3128 4100 2886 4159 
Q 2644 4219 2406 4219 
Q 1781 4219 1451 3797 
Q 1122 3375 1075 2522 
Q 1259 2794 1537 2939 
Q 1816 3084 2150 3084 
Q 2853 3084 3261 2657 
Q 3669 2231 3669 1497 
Q 3669 778 3244 343 
Q 2819 -91 2113 -91 
Q 1303 -91 875 529 
Q 447 1150 447 2328 
Q 447 3434 972 4092 
Q 1497 4750 2381 4750 
Q 2619 4750 2861 4703 
Q 3103 4656 3366 4563 
z
" transform="scale(0.015625)"/>
       </defs>
       <use xlink:href="#DejaVuSans-32"/>
       <use xlink:href="#DejaVuSans-30" x="63.623047"/>
       <use xlink:href="#DejaVuSans-31" x="127.246094"/>
       <use xlink:href="#DejaVuSans-36" x="190.869141"/>
      </g>
     </g>
    </g>
    <g id="xtick_4">
     <g id="line2d_4">
      <g>
       <use xlink:href="#m5d120834f3" x="307.189091" y="384.48" style="stroke: #000000; stroke-width: 0.8"/>
      </g>
     </g>
     <g id="text_4">
      <!-- 2017 -->
      <g transform="translate(294.464091 399.078438) scale(0.1 -0.1)">
       <defs>
        <path id="DejaVuSans-37" d="M 525 4666 
L 3525 4666 
L 3525 4397 
L 1831 0 
L 1172 0 
L 2766 4134 
L 525 4134 
L 525 4666 
z
" transform="scale(0.015625)"/>
       </defs>
       <use xlink:href="#DejaVuSans-32"/>
       <use xlink:href="#DejaVuSans-30" x="63.623047"/>
       <use xlink:href="#DejaVuSans-31" x="127.246094"/>
       <use xlink:href="#DejaVuSans-37" x="190.869141"/>
      </g>
     </g>
    </g>
    <g id="xtick_5">
     <g id="line2d_5">
      <g>
       <use xlink:href="#m5d120834f3" x="368.907273" y="384.48" style="stroke: #000000; stroke-width: 0.8"/>
      </g>
     </g>
     <g id="text_5">
      <!-- 2018 -->
      <g transform="translate(356.182273 399.078438) scale(0.1 -0.1)">
       <defs>
        <path id="DejaVuSans-38" d="M 2034 2216 
Q 1584 2216 1326 1975 
Q 1069 1734 1069 1313 
Q 1069 891 1326 650 
Q 1584 409 2034 409 
Q 2484 409 2743 651 
Q 3003 894 3003 1313 
Q 3003 1734 2745 1975 
Q 2488 2216 2034 2216 
z
M 1403 2484 
Q 997 2584 770 2862 
Q 544 3141 544 3541 
Q 544 4100 942 4425 
Q 1341 4750 2034 4750 
Q 2731 4750 3128 4425 
Q 3525 4100 3525 3541 
Q 3525 3141 3298 2862 
Q 3072 2584 2669 2484 
Q 3125 2378 3379 2068 
Q 3634 1759 3634 1313 
Q 3634 634 3220 271 
Q 2806 -91 2034 -91 
Q 1263 -91 848 271 
Q 434 634 434 1313 
Q 434 1759 690 2068 
Q 947 2378 1403 2484 
z
M 1172 3481 
Q 1172 3119 1398 2916 
Q 1625 2713 2034 2713 
Q 2441 2713 2670 2916 
Q 2900 3119 2900 3481 
Q 2900 3844 2670 4047 
Q 2441 4250 2034 4250 
Q 1625 4250 1398 4047 
Q 1172 3844 1172 3481 
z
" transform="scale(0.015625)"/>
       </defs>
       <use xlink:href="#DejaVuSans-32"/>
       <use xlink:href="#DejaVuSans-30" x="63.623047"/>
       <use xlink:href="#DejaVuSans-31" x="127.246094"/>
       <use xlink:href="#DejaVuSans-38" x="190.869141"/>
      </g>
     </g>
    </g>
    <g id="xtick_6">
     <g id="line2d_6">
      <g>
       <use xlink:href="#m5d120834f3" x="430.625455" y="384.48" style="stroke: #000000; stroke-width: 0.8"/>
      </g>
     </g>
     <g id="text_6">
      <!-- 2019 -->
      <g transform="translate(417.900455 399.078438) scale(0.1 -0.1)">
       <defs>
        <path id="DejaVuSans-39" d="M 703 97 
L 703 672 
Q 941 559 1184 500 
Q 1428 441 1663 441 
Q 2288 441 2617 861 
Q 2947 1281 2994 2138 
Q 2813 1869 2534 1725 
Q 2256 1581 1919 1581 
Q 1219 1581 811 2004 
Q 403 2428 403 3163 
Q 403 3881 828 4315 
Q 1253 4750 1959 4750 
Q 2769 4750 3195 4129 
Q 3622 3509 3622 2328 
Q 3622 1225 3098 567 
Q 2575 -91 1691 -91 
Q 1453 -91 1209 -44 
Q 966 3 703 97 
z
M 1959 2075 
Q 2384 2075 2632 2365 
Q 2881 2656 2881 3163 
Q 2881 3666 2632 3958 
Q 2384 4250 1959 4250 
Q 1534 4250 1286 3958 
Q 1038 3666 1038 3163 
Q 1038 2656 1286 2365 
Q 1534 2075 1959 2075 
z
" transform="scale(0.015625)"/>
       </defs>
       <use xlink:href="#DejaVuSans-32"/>
       <use xlink:href="#DejaVuSans-30" x="63.623047"/>
       <use xlink:href="#DejaVuSans-31" x="127.246094"/>
       <use xlink:href="#DejaVuSans-39" x="190.869141"/>
      </g>
     </g>
    </g>
    <g id="xtick_7">
     <g id="line2d_7">
      <g>
       <use xlink:href="#m5d120834f3" x="492.343636" y="384.48" style="stroke: #000000; stroke-width: 0.8"/>
      </g>
     </g>
     <g id="text_7">
      <!-- 2020 -->
      <g transform="translate(479.618636 399.078438) scale(0.1 -0.1)">
       <use xlink:href="#DejaVuSans-32"/>
       <use xlink:href="#DejaVuSans-30" x="63.623047"/>
       <use xlink:href="#DejaVuSans-32" x="127.246094"/>
       <use xlink:href="#DejaVuSans-30" x="190.869141"/>
      </g>
     </g>
    </g>
    <g id="xtick_8">
     <g id="line2d_8">
      <g>
       <use xlink:href="#m5d120834f3" x="554.230909" y="384.48" style="stroke: #000000; stroke-width: 0.8"/>
      </g>
     </g>
     <g id="text_8">
      <!-- 2021 -->
      <g transform="translate(541.505909 399.078438) scale(0.1 -0.1)">
       <use xlink:href="#DejaVuSans-32"/>
       <use xlink:href="#DejaVuSans-30" x="63.623047"/>
       <use xlink:href="#DejaVuSans-32" x="127.246094"/>
       <use xlink:href="#DejaVuSans-31" x="190.869141"/>
      </g>
     </g>
    </g>
    <g id="xtick_9">
     <g id="line2d_9">
      <g>
       <use xlink:href="#m5d120834f3" x="615.949091" y="384.48" style="stroke: #000000; stroke-width: 0.8"/>
      </g>
     </g>
     <g id="text_9">
      <!-- 2022 -->
      <g transform="translate(603.224091 399.078438) scale(0.1 -0.1)">
       <use xlink:href="#DejaVuSans-32"/>
       <use xlink:href="#DejaVuSans-30" x="63.623047"/>
       <use xlink:href="#DejaVuSans-32" x="127.246094"/>
       <use xlink:href="#DejaVuSans-32" x="190.869141"/>
      </g>
     </g>
    </g>
    <g id="xtick_10">
     <g id="line2d_10">
      <g>
       <use xlink:href="#m5d120834f3" x="677.667273" y="384.48" style="stroke: #000000; stroke-width: 0.8"/>
      </g>
     </g>
     <g id="text_10">
      <!-- 2023 -->
      <g transform="translate(664.942273 399.078438) scale(0.1 -0.1)">
       <defs>
        <path id="DejaVuSans-33" d="M 2597 2516 
Q 3050 2419 3304 2112 
Q 3559 1806 3559 1356 
Q 3559 666 3084 287 
Q 2609 -91 1734 -91 
Q 1441 -91 1130 -33 
Q 819 25 488 141 
L 488 750 
Q 750 597 1062 519 
Q 1375 441 1716 441 
Q 2309 441 2620 675 
Q 2931 909 2931 1356 
Q 2931 1769 2642 2001 
Q 2353 2234 1838 2234 
L 1294 2234 
L 1294 2753 
L 1863 2753 
Q 2328 2753 2575 2939 
Q 2822 3125 2822 3475 
Q 2822 3834 2567 4026 
Q 2313 4219 1838 4219 
Q 1578 4219 1281 4162 
Q 984 4106 628 3988 
L 628 4550 
Q 988 4650 1302 4700 
Q 1616 4750 1894 4750 
Q 2613 4750 3031 4423 
Q 3450 4097 3450 3541 
Q 3450 3153 3228 2886 
Q 3006 2619 2597 2516 
z
" transform="scale(0.015625)"/>
       </defs>
       <use xlink:href="#DejaVuSans-32"/>
       <use xlink:href="#DejaVuSans-30" x="63.623047"/>
       <use xlink:href="#DejaVuSans-32" x="127.246094"/>
       <use xlink:href="#DejaVuSans-33" x="190.869141"/>
      </g>
     </g>
    </g>
    <g id="xtick_11">
     <g id="line2d_11">
      <g>
       <use xlink:href="#m5d120834f3" x="739.385455" y="384.48" style="stroke: #000000; stroke-width: 0.8"/>
      </g>
     </g>
     <g id="text_11">
      <!-- 2024 -->
      <g transform="translate(726.660455 399.078438) scale(0.1 -0.1)">
       <use xlink:href="#DejaVuSans-32"/>
       <use xlink:href="#DejaVuSans-30" x="63.623047"/>
       <use xlink:href="#DejaVuSans-32" x="127.246094"/>
       <use xlink:href="#DejaVuSans-34" x="190.869141"/>
      </g>
     </g>
    </g>
    <g id="text_12">
     <!-- Date -->
     <g transform="translate(430.849219 412.756563) scale(0.1 -0.1)">
      <defs>
       <path id="DejaVuSans-44" d="M 1259 4147 
L 1259 519 
L 2022 519 
Q 2988 519 3436 956 
Q 3884 1394 3884 2338 
Q 3884 3275 3436 3711 
Q 2988 4147 2022 4147 
L 1259 4147 
z
M 628 4666 
L 1925 4666 
Q 3281 4666 3915 4102 
Q 4550 3538 4550 2338 
Q 4550 1131 3912 565 
Q 3275 0 1925 0 
L 628 0 
L 628 4666 
z
" transform="scale(0.015625)"/>
       <path id="DejaVuSans-61" d="M 2194 1759 
Q 1497 1759 1228 1600 
Q 959 1441 959 1056 
Q 959 750 1161 570 
Q 1363 391 1709 391 
Q 2188 391 2477 730 
Q 2766 1069 2766 1631 
L 2766 1759 
L 2194 1759 
z
M 3341 1997 
L 3341 0 
L 2766 0 
L 2766 531 
Q 2569 213 2275 61 
Q 1981 -91 1556 -91 
Q 1019 -91 701 211 
Q 384 513 384 1019 
Q 384 1609 779 1909 
Q 1175 2209 1959 2209 
L 2766 2209 
L 2766 2266 
Q 2766 2663 2505 2880 
Q 2244 3097 1772 3097 
Q 1472 3097 1187 3025 
Q 903 2953 641 2809 
L 641 3341 
Q 956 3463 1253 3523 
Q 1550 3584 1831 3584 
Q 2591 3584 2966 3190 
Q 3341 2797 3341 1997 
z
" transform="scale(0.015625)"/>
       <path id="DejaVuSans-74" d="M 1172 4494 
L 1172 3500 
L 2356 3500 
L 2356 3053 
L 1172 3053 
L 1172 1153 
Q 1172 725 1289 603 
Q 1406 481 1766 481 
L 2356 481 
L 2356 0 
L 1766 0 
Q 1100 0 847 248 
Q 594 497 594 1153 
L 594 3053 
L 172 3053 
L 172 3500 
L 594 3500 
L 594 4494 
L 1172 4494 
z
" transform="scale(0.015625)"/>
       <path id="DejaVuSans-65" d="M 3597 1894 
L 3597 1613 
L 953 1613 
Q 991 1019 1311 708 
Q 1631 397 2203 397 
Q 2534 397 2845 478 
Q 3156 559 3463 722 
L 3463 178 
Q 3153 47 2828 -22 
Q 2503 -91 2169 -91 
Q 1331 -91 842 396 
Q 353 884 353 1716 
Q 353 2575 817 3079 
Q 1281 3584 2069 3584 
Q 2775 3584 3186 3129 
Q 3597 2675 3597 1894 
z
M 3022 2063 
Q 3016 2534 2758 2815 
Q 2500 3097 2075 3097 
Q 1594 3097 1305 2825 
Q 1016 2553 972 2059 
L 3022 2063 
z
" transform="scale(0.015625)"/>
      </defs>
      <use xlink:href="#DejaVuSans-44"/>
      <use xlink:href="#DejaVuSans-61" x="77.001953"/>
      <use xlink:href="#DejaVuSans-74" x="138.28125"/>
      <use xlink:href="#DejaVuSans-65" x="177.490234"/>
     </g>
    </g>
   </g>
   <g id="matplotlib.axis_2">
    <g id="ytick_1">
     <g id="line2d_12">
      <defs>
       <path id="mca482e3dcd" d="M 0 0 
L -3.5 0 
" style="stroke: #000000; stroke-width: 0.8"/>
      </defs>
      <g>
       <use xlink:href="#mca482e3dcd" x="108" y="369.36" style="stroke: #000000; stroke-width: 0.8"/>
      </g>
     </g>
     <g id="text_13">
      <!-- 0 -->
      <g transform="translate(94.6375 373.159219) scale(0.1 -0.1)">
       <use xlink:href="#DejaVuSans-30"/>
      </g>
     </g>
    </g>
    <g id="ytick_2">
     <g id="line2d_13">
      <g>
       <use xlink:href="#mca482e3dcd" x="108" y="327.09703" style="stroke: #000000; stroke-width: 0.8"/>
      </g>
     </g>
     <g id="text_14">
      <!-- 2500 -->
      <g transform="translate(75.55 330.896249) scale(0.1 -0.1)">
       <use xlink:href="#DejaVuSans-32"/>
       <use xlink:href="#DejaVuSans-35" x="63.623047"/>
       <use xlink:href="#DejaVuSans-30" x="127.246094"/>
       <use xlink:href="#DejaVuSans-30" x="190.869141"/>
      </g>
     </g>
    </g>
    <g id="ytick_3">
     <g id="line2d_14">
      <g>
       <use xlink:href="#mca482e3dcd" x="108" y="284.834061" style="stroke: #000000; stroke-width: 0.8"/>
      </g>
     </g>
     <g id="text_15">
      <!-- 5000 -->
      <g transform="translate(75.55 288.63328) scale(0.1 -0.1)">
       <use xlink:href="#DejaVuSans-35"/>
       <use xlink:href="#DejaVuSans-30" x="63.623047"/>
       <use xlink:href="#DejaVuSans-30" x="127.246094"/>
       <use xlink:href="#DejaVuSans-30" x="190.869141"/>
      </g>
     </g>
    </g>
    <g id="ytick_4">
     <g id="line2d_15">
      <g>
       <use xlink:href="#mca482e3dcd" x="108" y="242.571091" style="stroke: #000000; stroke-width: 0.8"/>
      </g>
     </g>
     <g id="text_16">
      <!-- 7500 -->
      <g transform="translate(75.55 246.37031) scale(0.1 -0.1)">
       <use xlink:href="#DejaVuSans-37"/>
       <use xlink:href="#DejaVuSans-35" x="63.623047"/>
       <use xlink:href="#DejaVuSans-30" x="127.246094"/>
       <use xlink:href="#DejaVuSans-30" x="190.869141"/>
      </g>
     </g>
    </g>
    <g id="ytick_5">
     <g id="line2d_16">
      <g>
       <use xlink:href="#mca482e3dcd" x="108" y="200.308122" style="stroke: #000000; stroke-width: 0.8"/>
      </g>
     </g>
     <g id="text_17">
      <!-- 10000 -->
      <g transform="translate(69.1875 204.10734) scale(0.1 -0.1)">
       <use xlink:href="#DejaVuSans-31"/>
       <use xlink:href="#DejaVuSans-30" x="63.623047"/>
       <use xlink:href="#DejaVuSans-30" x="127.246094"/>
       <use xlink:href="#DejaVuSans-30" x="190.869141"/>
       <use xlink:href="#DejaVuSans-30" x="254.492188"/>
      </g>
     </g>
    </g>
    <g id="ytick_6">
     <g id="line2d_17">
      <g>
       <use xlink:href="#mca482e3dcd" x="108" y="158.045152" style="stroke: #000000; stroke-width: 0.8"/>
      </g>
     </g>
     <g id="text_18">
      <!-- 12500 -->
      <g transform="translate(69.1875 161.844371) scale(0.1 -0.1)">
       <use xlink:href="#DejaVuSans-31"/>
       <use xlink:href="#DejaVuSans-32" x="63.623047"/>
       <use xlink:href="#DejaVuSans-35" x="127.246094"/>
       <use xlink:href="#DejaVuSans-30" x="190.869141"/>
       <use xlink:href="#DejaVuSans-30" x="254.492188"/>
      </g>
     </g>
    </g>
    <g id="ytick_7">
     <g id="line2d_18">
      <g>
       <use xlink:href="#mca482e3dcd" x="108" y="115.782182" style="stroke: #000000; stroke-width: 0.8"/>
      </g>
     </g>
     <g id="text_19">
      <!-- 15000 -->
      <g transform="translate(69.1875 119.581401) scale(0.1 -0.1)">
       <use xlink:href="#DejaVuSans-31"/>
       <use xlink:href="#DejaVuSans-35" x="63.623047"/>
       <use xlink:href="#DejaVuSans-30" x="127.246094"/>
       <use xlink:href="#DejaVuSans-30" x="190.869141"/>
       <use xlink:href="#DejaVuSans-30" x="254.492188"/>
      </g>
     </g>
    </g>
    <g id="ytick_8">
     <g id="line2d_19">
      <g>
       <use xlink:href="#mca482e3dcd" x="108" y="73.519213" style="stroke: #000000; stroke-width: 0.8"/>
      </g>
     </g>
     <g id="text_20">
      <!-- 17500 -->
      <g transform="translate(69.1875 77.318432) scale(0.1 -0.1)">
       <use xlink:href="#DejaVuSans-31"/>
       <use xlink:href="#DejaVuSans-37" x="63.623047"/>
       <use xlink:href="#DejaVuSans-35" x="127.246094"/>
       <use xlink:href="#DejaVuSans-30" x="190.869141"/>
       <use xlink:href="#DejaVuSans-30" x="254.492188"/>
      </g>
     </g>
    </g>
    <g id="text_21">
     <!-- Number of Stars -->
     <g transform="translate(63.107812 259.102187) rotate(-90) scale(0.1 -0.1)">
      <defs>
       <path id="DejaVuSans-4e" d="M 628 4666 
L 1478 4666 
L 3547 763 
L 3547 4666 
L 4159 4666 
L 4159 0 
L 3309 0 
L 1241 3903 
L 1241 0 
L 628 0 
L 628 4666 
z
" transform="scale(0.015625)"/>
       <path id="DejaVuSans-75" d="M 544 1381 
L 544 3500 
L 1119 3500 
L 1119 1403 
Q 1119 906 1312 657 
Q 1506 409 1894 409 
Q 2359 409 2629 706 
Q 2900 1003 2900 1516 
L 2900 3500 
L 3475 3500 
L 3475 0 
L 2900 0 
L 2900 538 
Q 2691 219 2414 64 
Q 2138 -91 1772 -91 
Q 1169 -91 856 284 
Q 544 659 544 1381 
z
M 1991 3584 
L 1991 3584 
z
" transform="scale(0.015625)"/>
       <path id="DejaVuSans-6d" d="M 3328 2828 
Q 3544 3216 3844 3400 
Q 4144 3584 4550 3584 
Q 5097 3584 5394 3201 
Q 5691 2819 5691 2113 
L 5691 0 
L 5113 0 
L 5113 2094 
Q 5113 2597 4934 2840 
Q 4756 3084 4391 3084 
Q 3944 3084 3684 2787 
Q 3425 2491 3425 1978 
L 3425 0 
L 2847 0 
L 2847 2094 
Q 2847 2600 2669 2842 
Q 2491 3084 2119 3084 
Q 1678 3084 1418 2786 
Q 1159 2488 1159 1978 
L 1159 0 
L 581 0 
L 581 3500 
L 1159 3500 
L 1159 2956 
Q 1356 3278 1631 3431 
Q 1906 3584 2284 3584 
Q 2666 3584 2933 3390 
Q 3200 3197 3328 2828 
z
" transform="scale(0.015625)"/>
       <path id="DejaVuSans-62" d="M 3116 1747 
Q 3116 2381 2855 2742 
Q 2594 3103 2138 3103 
Q 1681 3103 1420 2742 
Q 1159 2381 1159 1747 
Q 1159 1113 1420 752 
Q 1681 391 2138 391 
Q 2594 391 2855 752 
Q 3116 1113 3116 1747 
z
M 1159 2969 
Q 1341 3281 1617 3432 
Q 1894 3584 2278 3584 
Q 2916 3584 3314 3078 
Q 3713 2572 3713 1747 
Q 3713 922 3314 415 
Q 2916 -91 2278 -91 
Q 1894 -91 1617 61 
Q 1341 213 1159 525 
L 1159 0 
L 581 0 
L 581 4863 
L 1159 4863 
L 1159 2969 
z
" transform="scale(0.015625)"/>
       <path id="DejaVuSans-72" d="M 2631 2963 
Q 2534 3019 2420 3045 
Q 2306 3072 2169 3072 
Q 1681 3072 1420 2755 
Q 1159 2438 1159 1844 
L 1159 0 
L 581 0 
L 581 3500 
L 1159 3500 
L 1159 2956 
Q 1341 3275 1631 3429 
Q 1922 3584 2338 3584 
Q 2397 3584 2469 3576 
Q 2541 3569 2628 3553 
L 2631 2963 
z
" transform="scale(0.015625)"/>
       <path id="DejaVuSans-20" transform="scale(0.015625)"/>
       <path id="DejaVuSans-6f" d="M 1959 3097 
Q 1497 3097 1228 2736 
Q 959 2375 959 1747 
Q 959 1119 1226 758 
Q 1494 397 1959 397 
Q 2419 397 2687 759 
Q 2956 1122 2956 1747 
Q 2956 2369 2687 2733 
Q 2419 3097 1959 3097 
z
M 1959 3584 
Q 2709 3584 3137 3096 
Q 3566 2609 3566 1747 
Q 3566 888 3137 398 
Q 2709 -91 1959 -91 
Q 1206 -91 779 398 
Q 353 888 353 1747 
Q 353 2609 779 3096 
Q 1206 3584 1959 3584 
z
" transform="scale(0.015625)"/>
       <path id="DejaVuSans-66" d="M 2375 4863 
L 2375 4384 
L 1825 4384 
Q 1516 4384 1395 4259 
Q 1275 4134 1275 3809 
L 1275 3500 
L 2222 3500 
L 2222 3053 
L 1275 3053 
L 1275 0 
L 697 0 
L 697 3053 
L 147 3053 
L 147 3500 
L 697 3500 
L 697 3744 
Q 697 4328 969 4595 
Q 1241 4863 1831 4863 
L 2375 4863 
z
" transform="scale(0.015625)"/>
       <path id="DejaVuSans-53" d="M 3425 4513 
L 3425 3897 
Q 3066 4069 2747 4153 
Q 2428 4238 2131 4238 
Q 1616 4238 1336 4038 
Q 1056 3838 1056 3469 
Q 1056 3159 1242 3001 
Q 1428 2844 1947 2747 
L 2328 2669 
Q 3034 2534 3370 2195 
Q 3706 1856 3706 1288 
Q 3706 609 3251 259 
Q 2797 -91 1919 -91 
Q 1588 -91 1214 -16 
Q 841 59 441 206 
L 441 856 
Q 825 641 1194 531 
Q 1563 422 1919 422 
Q 2459 422 2753 634 
Q 3047 847 3047 1241 
Q 3047 1584 2836 1778 
Q 2625 1972 2144 2069 
L 1759 2144 
Q 1053 2284 737 2584 
Q 422 2884 422 3419 
Q 422 4038 858 4394 
Q 1294 4750 2059 4750 
Q 2388 4750 2728 4690 
Q 3069 4631 3425 4513 
z
" transform="scale(0.015625)"/>
       <path id="DejaVuSans-73" d="M 2834 3397 
L 2834 2853 
Q 2591 2978 2328 3040 
Q 2066 3103 1784 3103 
Q 1356 3103 1142 2972 
Q 928 2841 928 2578 
Q 928 2378 1081 2264 
Q 1234 2150 1697 2047 
L 1894 2003 
Q 2506 1872 2764 1633 
Q 3022 1394 3022 966 
Q 3022 478 2636 193 
Q 2250 -91 1575 -91 
Q 1294 -91 989 -36 
Q 684 19 347 128 
L 347 722 
Q 666 556 975 473 
Q 1284 391 1588 391 
Q 1994 391 2212 530 
Q 2431 669 2431 922 
Q 2431 1156 2273 1281 
Q 2116 1406 1581 1522 
L 1381 1569 
Q 847 1681 609 1914 
Q 372 2147 372 2553 
Q 372 3047 722 3315 
Q 1072 3584 1716 3584 
Q 2034 3584 2315 3537 
Q 2597 3491 2834 3397 
z
" transform="scale(0.015625)"/>
      </defs>
      <use xlink:href="#DejaVuSans-4e"/>
      <use xlink:href="#DejaVuSans-75" x="74.804688"/>
      <use xlink:href="#DejaVuSans-6d" x="138.183594"/>
      <use xlink:href="#DejaVuSans-62" x="235.595703"/>
      <use xlink:href="#DejaVuSans-65" x="299.072266"/>
      <use xlink:href="#DejaVuSans-72" x="360.595703"/>
      <use xlink:href="#DejaVuSans-20" x="401.708984"/>
      <use xlink:href="#DejaVuSans-6f" x="433.496094"/>
      <use xlink:href="#DejaVuSans-66" x="494.677734"/>
      <use xlink:href="#DejaVuSans-20" x="529.882812"/>
      <use xlink:href="#DejaVuSans-53" x="561.669922"/>
      <use xlink:href="#DejaVuSans-74" x="625.146484"/>
      <use xlink:href="#DejaVuSans-61" x="664.355469"/>
      <use xlink:href="#DejaVuSans-72" x="725.634766"/>
      <use xlink:href="#DejaVuSans-73" x="766.748047"/>
     </g>
    </g>
   </g>
   <g id="line2d_20">
    <path d="M 138.436364 369.36 
L 630.998182 369.292379 
L 631.167273 369.072612 
L 631.505455 363.257227 
L 631.843636 360.349535 
L 632.350909 358.320912 
L 632.689091 357.999714 
L 632.858182 357.915188 
L 633.365455 357.103739 
L 634.041818 356.664204 
L 634.38 356.376816 
L 634.549091 356.258479 
L 635.563636 354.398909 
L 635.901818 354.196047 
L 636.409091 353.874848 
L 637.761818 353.502934 
L 637.930909 353.16483 
L 638.438182 352.911252 
L 639.790909 352.454812 
L 640.636364 352.302665 
L 641.312727 352.150519 
L 641.82 351.998372 
L 642.158182 351.79551 
L 644.863636 350.612147 
L 646.385455 347.535403 
L 646.723636 347.33254 
L 647.061818 347.078962 
L 648.245455 345.726547 
L 649.090909 345.219392 
L 649.26 344.915098 
L 649.598182 344.779857 
L 650.274545 344.458658 
L 651.796364 343.917692 
L 652.810909 343.495063 
L 654.163636 343.275295 
L 654.501818 343.140054 
L 656.361818 342.852665 
L 658.221818 342.463846 
L 658.56 342.260984 
L 658.729091 342.260984 
L 659.405455 341.804544 
L 660.081818 341.652397 
L 660.250909 341.618587 
L 660.589091 341.381914 
L 661.603636 340.857853 
L 662.110909 339.894258 
L 662.956364 339.589964 
L 663.970909 339.285671 
L 666 338.626369 
L 666.676364 337.983971 
L 667.014545 337.612057 
L 667.183636 337.561342 
L 667.690909 337.206333 
L 668.367273 336.817513 
L 668.874545 336.682272 
L 669.381818 336.47941 
L 670.734545 336.02297 
L 670.903636 335.803202 
L 671.241818 335.651055 
L 671.918182 335.363667 
L 673.609091 334.788891 
L 673.947273 334.501503 
L 674.285455 334.281735 
L 674.792727 334.112683 
L 675.130909 333.740769 
L 675.469091 333.132182 
L 675.976364 332.92932 
L 676.652727 332.540501 
L 677.329091 332.202397 
L 677.836364 332.05025 
L 678.174545 331.915009 
L 678.512727 331.661431 
L 679.696364 329.76805 
L 680.710909 329.480662 
L 681.725455 329.142558 
L 682.401818 328.500161 
L 682.74 328.128247 
L 684.430909 327.350608 
L 685.445455 327.147746 
L 686.121818 326.894168 
L 686.46 326.826547 
L 686.798182 326.268676 
L 687.981818 325.981288 
L 688.32 325.829141 
L 688.996364 325.609374 
L 690.518182 325.203649 
L 691.532727 324.595063 
L 691.701818 324.138623 
L 692.209091 321.940948 
L 692.547273 321.315456 
L 692.716364 320.487102 
L 693.054545 318.49229 
L 693.9 316.937013 
L 694.238182 316.480572 
L 694.576364 316.125564 
L 695.76 314.739338 
L 696.267273 313.775742 
L 696.436364 313.386923 
L 697.281818 312.913578 
L 697.62 312.423327 
L 697.958182 312.304991 
L 698.634545 312.000698 
L 699.48 311.645689 
L 700.663636 311.425921 
L 702.185455 310.496136 
L 702.523636 310.41161 
L 703.030909 310.276369 
L 703.876364 309.95517 
L 704.721818 309.549445 
L 705.398182 309.346583 
L 705.905455 308.366082 
L 706.243636 307.723685 
L 707.427273 307.047478 
L 707.934545 306.760089 
L 708.441818 306.624848 
L 711.485455 305.91483 
L 711.823636 305.779589 
L 712.5 305.644347 
L 712.838182 305.373864 
L 713.514545 305.103381 
L 714.021818 305.03576 
L 715.543636 304.663846 
L 715.881818 304.613131 
L 716.896364 304.325742 
L 718.756364 303.886208 
L 719.094545 303.734061 
L 719.432727 303.66644 
L 720.278182 303.260716 
L 720.954545 302.956422 
L 721.292727 302.888801 
L 721.8 302.78737 
L 722.307273 302.398551 
L 722.814545 301.959016 
L 723.490909 301.739249 
L 723.998182 301.553292 
L 724.505455 301.485671 
L 725.689091 300.623506 
L 726.703636 300.386834 
L 727.210909 300.08254 
L 727.549091 299.964204 
L 727.887273 299.676816 
L 728.901818 299.457048 
L 729.578182 299.321807 
L 730.085455 297.496047 
L 730.761818 296.786029 
L 731.1 296.600072 
L 731.438182 296.329589 
L 732.114545 296.0422 
L 732.621818 295.923864 
L 733.467273 295.602665 
L 734.312727 295.433614 
L 735.496364 295.213846 
L 737.018182 294.808122 
L 739.385455 294.165725 
L 740.061818 294.081199 
L 740.907273 293.827621 
L 741.414545 293.607853 
L 742.090909 293.472612 
L 742.936364 293.235939 
L 744.12 293.049982 
L 744.458182 292.897835 
L 747.163636 292.339964 
L 747.163636 292.339964 
" clip-path="url(#p8ca97f3f84)" style="fill: none; stroke: #1f77b4; stroke-width: 1.5; stroke-linecap: square"/>
   </g>
   <g id="line2d_21">
    <path d="M 138.436364 369.36 
L 284.192727 369.309284 
L 284.361818 369.241664 
L 284.530909 368.954275 
L 285.545455 368.649982 
L 286.390909 368.599267 
L 286.729091 367.99068 
L 290.787273 367.686386 
L 292.14 367.635671 
L 292.478182 367.483524 
L 292.647273 367.483524 
L 292.985455 367.196136 
L 293.154545 367.14542 
L 293.492727 366.908748 
L 294 366.790411 
L 294.507273 366.68898 
L 295.352727 366.604454 
L 297.043636 366.519928 
L 297.212727 366.469213 
L 297.550909 365.945152 
L 299.918182 365.573238 
L 301.778182 365.488712 
L 302.623636 365.421091 
L 303.976364 365.336565 
L 304.990909 365.235134 
L 306.681818 365.167513 
L 311.585455 365.066082 
L 312.6 364.964651 
L 313.614545 364.86322 
L 319.870909 364.339159 
L 321.9 364.305349 
L 322.238182 364.034866 
L 323.083636 363.848909 
L 323.421818 363.713667 
L 323.76 363.544615 
L 325.281818 363.155796 
L 325.789091 362.242916 
L 327.48 361.837191 
L 328.156364 361.448372 
L 329.001818 361.363846 
L 329.170909 361.025742 
L 330.016364 360.805975 
L 330.861818 360.738354 
L 331.369091 360.687639 
L 331.876364 360.467871 
L 332.552727 360.383345 
L 333.229091 360.180483 
L 333.736364 360.079052 
L 337.963636 359.318318 
L 338.301818 359.267603 
L 338.470909 359.115456 
L 339.485455 359.047835 
L 340.161818 358.946404 
L 341.007273 358.861878 
L 341.514545 358.777352 
L 342.698182 358.675921 
L 345.572727 358.405438 
L 345.910909 357.002308 
L 346.249091 356.613488 
L 346.418182 356.579678 
L 346.925455 356.224669 
L 347.432727 356.123238 
L 348.109091 356.021807 
L 348.616364 355.818945 
L 348.785455 355.818945 
L 349.292727 354.973685 
L 349.8 354.770823 
L 350.476364 354.551055 
L 350.814545 354.432719 
L 351.490909 354.365098 
L 351.998182 354.128426 
L 352.336364 354.07771 
L 352.843636 353.841038 
L 353.52 353.739606 
L 353.858182 353.638175 
L 354.872727 353.553649 
L 356.225455 353.181735 
L 356.563636 352.70839 
L 357.070909 352.522433 
L 357.578182 352.370286 
L 357.916364 352.268855 
L 358.592727 352.099803 
L 360.283636 351.863131 
L 360.621818 351.778605 
L 361.298182 351.254544 
L 361.805455 351.186923 
L 362.143636 351.017871 
L 365.694545 350.223327 
L 366.370909 349.868318 
L 366.709091 349.817603 
L 367.047273 349.614741 
L 368.4 349.54712 
L 369.076364 349.445689 
L 369.921818 349.344258 
L 372.627273 348.617335 
L 373.641818 348.431377 
L 374.318182 348.042558 
L 374.487273 347.772075 
L 374.994545 347.670644 
L 375.163636 347.586118 
L 375.670909 346.994436 
L 376.178182 346.926816 
L 379.221818 345.811073 
L 379.56 345.777263 
L 379.898182 345.591306 
L 380.067273 345.574401 
L 380.743636 344.746047 
L 381.081818 344.019123 
L 381.589091 343.697925 
L 382.265455 343.579589 
L 382.603636 343.528873 
L 383.110909 343.309106 
L 383.787273 343.021717 
L 386.492727 342.277889 
L 386.830909 342.210268 
L 387 342.058122 
L 387.338182 341.483345 
L 387.845455 341.01 
L 388.014545 340.857853 
L 388.521818 339.894258 
L 389.198182 339.234955 
L 389.367273 339.18424 
L 389.705455 338.863041 
L 389.874545 337.409195 
L 390.212727 337.138712 
L 390.381818 335.870823 
L 391.227273 334.433882 
L 393.425455 333.199803 
L 393.932727 333.064562 
L 395.961818 332.168587 
L 398.498182 331.255707 
L 398.667273 331.238801 
L 399.005455 330.748551 
L 399.343636 330.545689 
L 399.850909 330.359732 
L 401.372727 329.869481 
L 401.541818 329.835671 
L 401.88 329.615903 
L 402.725455 329.2778 
L 405.430909 327.9761 
L 405.769091 327.908479 
L 406.107273 327.739428 
L 407.121818 327.468945 
L 407.46 327.181556 
L 407.798182 327.02941 
L 408.136364 326.911073 
L 408.981818 326.319392 
L 409.489091 326.11653 
L 409.827273 325.879857 
L 410.165455 325.6939 
L 411.010909 325.541753 
L 411.349091 325.372701 
L 411.856364 325.119123 
L 412.532727 324.882451 
L 413.04 324.78102 
L 413.547273 324.493631 
L 414.054545 324.459821 
L 414.561818 324.32458 
L 415.238182 324.223148 
L 415.745455 324.104812 
L 416.083636 323.969571 
L 416.421818 323.86814 
L 417.267273 323.462415 
L 417.605455 323.360984 
L 418.958182 322.870733 
L 419.465455 322.617156 
L 419.972727 322.448104 
L 420.818182 321.738086 
L 421.156364 321.61975 
L 422.34 320.757585 
L 427.074545 319.269928 
L 428.427273 318.543005 
L 429.441818 318.289428 
L 430.118182 318.002039 
L 430.963636 317.866798 
L 431.470909 317.697746 
L 431.809091 317.64703 
L 432.316364 317.410358 
L 432.992727 317.224401 
L 433.330909 317.072254 
L 433.838182 316.886297 
L 435.021818 316.480572 
L 435.529091 316.396047 
L 436.205455 316.142469 
L 437.727273 315.770555 
L 438.065455 315.483166 
L 438.403636 314.502665 
L 438.910909 314.198372 
L 439.418182 313.522165 
L 440.094545 313.370018 
L 440.770909 313.08263 
L 442.461818 312.372612 
L 442.8 312.085224 
L 443.307273 311.966887 
L 444.321818 311.544258 
L 444.998182 311.375206 
L 445.843636 310.918766 
L 447.027273 310.665188 
L 447.534545 310.462326 
L 447.872727 310.259463 
L 448.210909 310.191843 
L 448.887273 309.819928 
L 449.563636 309.481825 
L 452.607273 307.909642 
L 452.945455 307.639159 
L 454.298182 306.996762 
L 455.143636 306.438891 
L 455.481818 306.354365 
L 456.327273 306.100787 
L 456.665455 305.982451 
L 457.510909 305.542916 
L 457.849091 305.390769 
L 458.525455 305.069571 
L 461.907273 303.953828 
L 462.245455 303.767871 
L 462.583636 303.649535 
L 463.598182 303.091664 
L 464.105455 302.669034 
L 465.965455 301.992826 
L 466.641818 301.891395 
L 466.98 301.756154 
L 467.656364 301.587102 
L 469.516364 301.130662 
L 469.685455 301.130662 
L 470.023636 300.758748 
L 470.361818 300.251592 
L 470.869091 299.896583 
L 473.236364 298.324401 
L 475.941818 297.411521 
L 476.618182 297.124132 
L 477.970909 296.88746 
L 478.647273 296.667692 
L 479.492727 296.447925 
L 480.676364 296.126726 
L 481.183636 295.856243 
L 481.690909 295.704097 
L 482.198182 295.55195 
L 483.043636 295.382898 
L 484.058182 294.892648 
L 484.565455 294.706691 
L 484.903636 294.63907 
L 485.241818 294.317871 
L 485.58 293.945957 
L 486.594545 293.540233 
L 487.270909 293.320465 
L 487.609091 292.999267 
L 488.116364 292.627352 
L 488.792727 292.356869 
L 489.469091 292.052576 
L 489.976364 291.849714 
L 491.498182 291.190411 
L 494.034545 290.581825 
L 495.049091 290.294436 
L 497.247273 289.75347 
L 498.261818 289.246315 
L 500.798182 288.637728 
L 501.136364 288.282719 
L 501.981818 287.92771 
L 502.32 287.657227 
L 502.827273 287.43746 
L 503.841818 286.879589 
L 504.18 286.795063 
L 505.025455 286.575295 
L 508.745455 285.391932 
L 509.929091 284.698819 
L 510.436364 284.445242 
L 511.450909 283.938086 
L 511.789091 283.329499 
L 512.803636 282.585671 
L 513.48 282.348998 
L 514.494545 281.537549 
L 515.170909 281.199445 
L 516.016364 280.945868 
L 516.354545 280.709195 
L 517.876364 280.168229 
L 518.383636 280.083703 
L 520.92 278.714383 
L 521.258182 278.545331 
L 521.596364 278.528426 
L 522.103636 278.257943 
L 522.610909 278.156512 
L 524.809091 277.10839 
L 525.147273 275.992648 
L 525.823636 275.586923 
L 528.021818 274.606422 
L 528.36 273.017335 
L 530.896364 271.343721 
L 531.234545 271.225385 
L 531.403636 271.140859 
L 531.572727 270.870376 
L 531.910909 270.008211 
L 532.249091 269.754633 
L 532.756364 269.010805 
L 533.94 267.979589 
L 534.278182 267.573864 
L 534.785455 267.286476 
L 535.8 266.238354 
L 537.152727 265.156422 
L 538.674545 264.175921 
L 539.52 263.837818 
L 540.534545 263.229231 
L 541.549091 262.603739 
L 542.056364 262.485403 
L 542.563636 261.893721 
L 543.070909 261.673953 
L 543.409091 261.302039 
L 543.747273 260.794884 
L 544.085455 260.625832 
L 545.1 259.932719 
L 545.438182 259.780572 
L 545.607273 259.374848 
L 545.776364 258.563399 
L 546.283636 257.937907 
L 546.621818 257.802665 
L 547.129091 257.312415 
L 547.636364 256.906691 
L 547.974545 256.670018 
L 548.481818 256.264293 
L 548.82 256.010716 
L 549.665455 255.283792 
L 550.68 254.742826 
L 550.849091 254.556869 
L 551.018182 254.556869 
L 551.525455 254.252576 
L 551.694545 254.16805 
L 552.032727 253.74542 
L 552.54 253.542558 
L 553.047273 253.25517 
L 554.4 252.697299 
L 555.076364 252.511342 
L 555.583636 252.156333 
L 556.429091 251.632272 
L 557.612727 250.719392 
L 557.950909 250.381288 
L 558.289091 250.296762 
L 558.965455 249.891038 
L 559.641818 249.502218 
L 560.149091 249.130304 
L 560.487273 249.096494 
L 564.376364 246.104275 
L 564.883636 245.732361 
L 565.052727 245.563309 
L 565.390909 245.512594 
L 566.574545 244.701145 
L 566.912727 244.413757 
L 567.250909 244.058748 
L 568.434545 243.230394 
L 569.449091 242.655617 
L 569.787273 242.266798 
L 570.294545 242.063936 
L 570.970909 241.59059 
L 571.985455 240.897478 
L 572.154545 240.745331 
L 572.492727 240.67771 
L 573.338182 240.136744 
L 573.676364 239.900072 
L 573.845455 239.392916 
L 574.690909 238.902665 
L 575.367273 238.513846 
L 575.705455 238.158837 
L 576.212727 237.753113 
L 576.889091 236.958569 
L 577.227273 236.874043 
L 578.241818 235.809016 
L 578.410909 235.741395 
L 578.918182 235.26805 
L 579.425455 234.997567 
L 580.44 234.456601 
L 580.778182 232.766082 
L 581.285455 232.123685 
L 581.961818 231.599624 
L 582.976364 231.007943 
L 583.483636 230.636029 
L 583.990909 230.111968 
L 584.498182 229.909106 
L 585.343636 229.131467 
L 586.189091 228.675027 
L 586.527273 228.421449 
L 588.049091 227.660716 
L 588.387273 227.339517 
L 591.938182 224.736118 
L 592.614545 224.0261 
L 594.812727 222.132719 
L 595.150909 222.014383 
L 597.687273 220.306959 
L 598.025455 220.205528 
L 598.532727 220.019571 
L 599.04 219.749088 
L 599.547273 219.461699 
L 599.716364 219.410984 
L 600.223636 219.03907 
L 601.576364 218.075474 
L 602.421818 217.619034 
L 603.098182 216.537102 
L 603.436364 216.249714 
L 603.774545 215.94542 
L 604.112727 215.708748 
L 604.450909 215.658032 
L 605.296364 214.778962 
L 605.634545 214.643721 
L 605.972727 214.237996 
L 607.325455 213.494168 
L 607.832727 213.122254 
L 608.170909 212.902487 
L 608.847273 212.260089 
L 609.185455 212.158658 
L 609.523636 211.87127 
L 610.030909 211.44864 
L 610.538182 211.262683 
L 611.383636 210.349803 
L 611.721818 210.096225 
L 612.06 209.58907 
L 612.905455 203.418676 
L 613.581818 201.50839 
L 613.92 201.153381 
L 614.089091 200.865993 
L 614.427273 199.885492 
L 614.765455 199.310716 
L 615.103636 199.175474 
L 616.287273 197.654007 
L 616.625455 197.265188 
L 617.301818 196.487549 
L 617.809091 196.064919 
L 618.485455 195.337996 
L 618.823636 194.966082 
L 619.838182 193.360089 
L 620.007273 193.241753 
L 620.514545 192.497925 
L 620.852727 192.193631 
L 621.190909 191.990769 
L 622.881818 190.672165 
L 623.389091 190.350966 
L 624.741818 189.302844 
L 625.418182 188.728068 
L 625.756364 188.609732 
L 626.263636 188.119481 
L 627.109091 187.544705 
L 628.123636 186.395152 
L 628.461818 186.141574 
L 628.969091 185.566798 
L 629.645455 184.603202 
L 630.152727 183.825564 
L 630.66 183.52127 
L 631.167273 182.912683 
L 631.843636 182.422433 
L 632.181818 182.15195 
L 632.689091 181.644794 
L 633.027273 181.441932 
L 633.872727 180.596673 
L 634.549091 180.106422 
L 636.070909 178.010179 
L 636.578182 177.705886 
L 638.945455 174.662952 
L 639.452727 173.496494 
L 640.129091 172.380751 
L 640.805455 171.214293 
L 641.312727 170.791664 
L 641.82 170.250698 
L 642.158182 170.047835 
L 642.665455 169.456154 
L 643.003636 168.898283 
L 644.018182 167.867066 
L 644.356364 167.3261 
L 646.385455 166.193453 
L 647.4 165.415814 
L 647.907273 164.942469 
L 648.245455 164.874848 
L 649.090909 164.012683 
L 649.429091 163.894347 
L 650.105455 163.099803 
L 650.443636 162.727889 
L 650.781818 162.592648 
L 651.458182 161.730483 
L 651.965455 161.375474 
L 652.641818 160.716172 
L 653.318182 160.259732 
L 653.656364 159.854007 
L 655.685455 158.33254 
L 656.192727 157.740859 
L 656.530909 157.571807 
L 657.038182 156.912504 
L 657.545455 156.557496 
L 658.729091 155.306512 
L 659.067273 155.13746 
L 659.912727 153.937191 
L 661.772727 152.229767 
L 662.110909 151.773327 
L 662.618182 151.55356 
L 663.294545 151.215456 
L 664.14 150.606869 
L 664.647273 150.25186 
L 664.985455 150.048998 
L 665.323636 149.626369 
L 667.521818 147.597746 
L 668.029091 146.803202 
L 668.367273 146.718676 
L 670.058182 145.281735 
L 670.565455 144.673148 
L 670.903636 144.504097 
L 671.241818 143.810984 
L 673.609091 142.204991 
L 673.947273 141.714741 
L 674.792727 141.123059 
L 675.130909 140.565188 
L 675.976364 139.85517 
L 676.483636 139.229678 
L 677.16 138.536565 
L 677.498182 138.164651 
L 678.174545 137.505349 
L 678.681818 137.048909 
L 679.02 136.812236 
L 680.203636 135.662683 
L 680.710909 135.273864 
L 681.049091 135.087907 
L 681.387273 134.93576 
L 682.232727 133.904544 
L 682.74 133.363578 
L 683.078182 132.991664 
L 683.416364 132.738086 
L 684.938182 131.537818 
L 685.783636 130.692558 
L 686.46 129.965635 
L 687.136364 128.985134 
L 687.305455 128.866798 
L 687.643636 128.393453 
L 687.812727 128.308927 
L 688.32 127.649624 
L 688.827273 127.142469 
L 689.503636 126.415546 
L 690.010909 125.739338 
L 690.349091 125.130751 
L 690.687273 124.792648 
L 691.025455 124.505259 
L 692.04 123.338801 
L 693.223636 122.189249 
L 695.083636 120.566351 
L 695.421818 120.093005 
L 695.76 119.788712 
L 695.929091 118.588444 
L 696.436364 117.675564 
L 696.943636 117.151503 
L 697.450909 116.356959 
L 699.649091 114.379052 
L 699.987273 113.854991 
L 700.494545 113.432361 
L 701.509091 112.299714 
L 702.016364 111.99542 
L 702.354545 111.623506 
L 704.383636 109.510358 
L 705.229091 108.749624 
L 707.089091 106.687191 
L 707.596364 106.315277 
L 707.934545 105.909553 
L 708.272727 105.470018 
L 710.301818 103.914741 
L 712.161818 102.291843 
L 712.5 101.784687 
L 714.529091 99.485581 
L 716.22 98.082451 
L 716.558182 97.744347 
L 717.234545 97.304812 
L 718.418182 96.256691 
L 720.616364 94.39712 
L 720.954545 94.008301 
L 721.461818 93.636386 
L 722.307273 92.689696 
L 722.814545 92.453023 
L 723.490909 91.607764 
L 723.998182 91.438712 
L 725.689091 89.951055 
L 726.027273 89.291753 
L 726.534545 88.818408 
L 729.409091 86.079767 
L 729.916364 85.758569 
L 731.438182 83.628515 
L 731.776364 82.986118 
L 733.129091 81.599893 
L 733.636364 81.160358 
L 734.312727 80.298193 
L 734.650909 80.02771 
L 735.496364 78.438623 
L 737.525455 76.714293 
L 737.863636 76.105707 
L 739.554545 75.057585 
L 739.892727 74.787102 
L 740.4 74.347567 
L 740.738182 74.043274 
L 741.583636 72.961342 
L 742.090909 72.352755 
L 742.26 72.234419 
L 742.936364 71.253918 
L 743.612727 70.493184 
L 744.289091 69.850787 
L 744.965455 68.954812 
L 745.303636 68.71814 
L 745.641818 68.32932 
L 746.994545 67.112147 
L 747.163636 66.96 
L 747.163636 66.96 
" clip-path="url(#p8ca97f3f84)" style="fill: none; stroke: #ff7f0e; stroke-width: 1.5; stroke-linecap: square"/>
   </g>
   <g id="patch_3">
    <path d="M 108 384.48 
L 108 51.84 
" style="fill: none; stroke: #000000; stroke-width: 0.8; stroke-linejoin: miter; stroke-linecap: square"/>
   </g>
   <g id="patch_4">
    <path d="M 777.6 384.48 
L 777.6 51.84 
" style="fill: none; stroke: #000000; stroke-width: 0.8; stroke-linejoin: miter; stroke-linecap: square"/>
   </g>
   <g id="patch_5">
    <path d="M 108 384.48 
L 777.6 384.48 
" style="fill: none; stroke: #000000; stroke-width: 0.8; stroke-linejoin: miter; stroke-linecap: square"/>
   </g>
   <g id="patch_6">
    <path d="M 108 51.84 
L 777.6 51.84 
" style="fill: none; stroke: #000000; stroke-width: 0.8; stroke-linejoin: miter; stroke-linecap: square"/>
   </g>
   <g id="text_22">
    <!-- GitHub Stars Over Time for Different Repositories -->
    <g transform="translate(294.554062 45.84) scale(0.12 -0.12)">
     <defs>
      <path id="DejaVuSans-47" d="M 3809 666 
L 3809 1919 
L 2778 1919 
L 2778 2438 
L 4434 2438 
L 4434 434 
Q 4069 175 3628 42 
Q 3188 -91 2688 -91 
Q 1594 -91 976 548 
Q 359 1188 359 2328 
Q 359 3472 976 4111 
Q 1594 4750 2688 4750 
Q 3144 4750 3555 4637 
Q 3966 4525 4313 4306 
L 4313 3634 
Q 3963 3931 3569 4081 
Q 3175 4231 2741 4231 
Q 1884 4231 1454 3753 
Q 1025 3275 1025 2328 
Q 1025 1384 1454 906 
Q 1884 428 2741 428 
Q 3075 428 3337 486 
Q 3600 544 3809 666 
z
" transform="scale(0.015625)"/>
      <path id="DejaVuSans-69" d="M 603 3500 
L 1178 3500 
L 1178 0 
L 603 0 
L 603 3500 
z
M 603 4863 
L 1178 4863 
L 1178 4134 
L 603 4134 
L 603 4863 
z
" transform="scale(0.015625)"/>
      <path id="DejaVuSans-48" d="M 628 4666 
L 1259 4666 
L 1259 2753 
L 3553 2753 
L 3553 4666 
L 4184 4666 
L 4184 0 
L 3553 0 
L 3553 2222 
L 1259 2222 
L 1259 0 
L 628 0 
L 628 4666 
z
" transform="scale(0.015625)"/>
      <path id="DejaVuSans-4f" d="M 2522 4238 
Q 1834 4238 1429 3725 
Q 1025 3213 1025 2328 
Q 1025 1447 1429 934 
Q 1834 422 2522 422 
Q 3209 422 3611 934 
Q 4013 1447 4013 2328 
Q 4013 3213 3611 3725 
Q 3209 4238 2522 4238 
z
M 2522 4750 
Q 3503 4750 4090 4092 
Q 4678 3434 4678 2328 
Q 4678 1225 4090 567 
Q 3503 -91 2522 -91 
Q 1538 -91 948 565 
Q 359 1222 359 2328 
Q 359 3434 948 4092 
Q 1538 4750 2522 4750 
z
" transform="scale(0.015625)"/>
      <path id="DejaVuSans-76" d="M 191 3500 
L 800 3500 
L 1894 563 
L 2988 3500 
L 3597 3500 
L 2284 0 
L 1503 0 
L 191 3500 
z
" transform="scale(0.015625)"/>
      <path id="DejaVuSans-54" d="M -19 4666 
L 3928 4666 
L 3928 4134 
L 2272 4134 
L 2272 0 
L 1638 0 
L 1638 4134 
L -19 4134 
L -19 4666 
z
" transform="scale(0.015625)"/>
      <path id="DejaVuSans-6e" d="M 3513 2113 
L 3513 0 
L 2938 0 
L 2938 2094 
Q 2938 2591 2744 2837 
Q 2550 3084 2163 3084 
Q 1697 3084 1428 2787 
Q 1159 2491 1159 1978 
L 1159 0 
L 581 0 
L 581 3500 
L 1159 3500 
L 1159 2956 
Q 1366 3272 1645 3428 
Q 1925 3584 2291 3584 
Q 2894 3584 3203 3211 
Q 3513 2838 3513 2113 
z
" transform="scale(0.015625)"/>
      <path id="DejaVuSans-52" d="M 2841 2188 
Q 3044 2119 3236 1894 
Q 3428 1669 3622 1275 
L 4263 0 
L 3584 0 
L 2988 1197 
Q 2756 1666 2539 1819 
Q 2322 1972 1947 1972 
L 1259 1972 
L 1259 0 
L 628 0 
L 628 4666 
L 2053 4666 
Q 2853 4666 3247 4331 
Q 3641 3997 3641 3322 
Q 3641 2881 3436 2590 
Q 3231 2300 2841 2188 
z
M 1259 4147 
L 1259 2491 
L 2053 2491 
Q 2509 2491 2742 2702 
Q 2975 2913 2975 3322 
Q 2975 3731 2742 3939 
Q 2509 4147 2053 4147 
L 1259 4147 
z
" transform="scale(0.015625)"/>
      <path id="DejaVuSans-70" d="M 1159 525 
L 1159 -1331 
L 581 -1331 
L 581 3500 
L 1159 3500 
L 1159 2969 
Q 1341 3281 1617 3432 
Q 1894 3584 2278 3584 
Q 2916 3584 3314 3078 
Q 3713 2572 3713 1747 
Q 3713 922 3314 415 
Q 2916 -91 2278 -91 
Q 1894 -91 1617 61 
Q 1341 213 1159 525 
z
M 3116 1747 
Q 3116 2381 2855 2742 
Q 2594 3103 2138 3103 
Q 1681 3103 1420 2742 
Q 1159 2381 1159 1747 
Q 1159 1113 1420 752 
Q 1681 391 2138 391 
Q 2594 391 2855 752 
Q 3116 1113 3116 1747 
z
" transform="scale(0.015625)"/>
     </defs>
     <use xlink:href="#DejaVuSans-47"/>
     <use xlink:href="#DejaVuSans-69" x="77.490234"/>
     <use xlink:href="#DejaVuSans-74" x="105.273438"/>
     <use xlink:href="#DejaVuSans-48" x="144.482422"/>
     <use xlink:href="#DejaVuSans-75" x="219.677734"/>
     <use xlink:href="#DejaVuSans-62" x="283.056641"/>
     <use xlink:href="#DejaVuSans-20" x="346.533203"/>
     <use xlink:href="#DejaVuSans-53" x="378.320312"/>
     <use xlink:href="#DejaVuSans-74" x="441.796875"/>
     <use xlink:href="#DejaVuSans-61" x="481.005859"/>
     <use xlink:href="#DejaVuSans-72" x="542.285156"/>
     <use xlink:href="#DejaVuSans-73" x="583.398438"/>
     <use xlink:href="#DejaVuSans-20" x="635.498047"/>
     <use xlink:href="#DejaVuSans-4f" x="667.285156"/>
     <use xlink:href="#DejaVuSans-76" x="745.996094"/>
     <use xlink:href="#DejaVuSans-65" x="805.175781"/>
     <use xlink:href="#DejaVuSans-72" x="866.699219"/>
     <use xlink:href="#DejaVuSans-20" x="907.8125"/>
     <use xlink:href="#DejaVuSans-54" x="939.599609"/>
     <use xlink:href="#DejaVuSans-69" x="997.558594"/>
     <use xlink:href="#DejaVuSans-6d" x="1025.341797"/>
     <use xlink:href="#DejaVuSans-65" x="1122.753906"/>
     <use xlink:href="#DejaVuSans-20" x="1184.277344"/>
     <use xlink:href="#DejaVuSans-66" x="1216.064453"/>
     <use xlink:href="#DejaVuSans-6f" x="1251.269531"/>
     <use xlink:href="#DejaVuSans-72" x="1312.451172"/>
     <use xlink:href="#DejaVuSans-20" x="1353.564453"/>
     <use xlink:href="#DejaVuSans-44" x="1385.351562"/>
     <use xlink:href="#DejaVuSans-69" x="1462.353516"/>
     <use xlink:href="#DejaVuSans-66" x="1490.136719"/>
     <use xlink:href="#DejaVuSans-66" x="1525.341797"/>
     <use xlink:href="#DejaVuSans-65" x="1560.546875"/>
     <use xlink:href="#DejaVuSans-72" x="1622.070312"/>
     <use xlink:href="#DejaVuSans-65" x="1660.933594"/>
     <use xlink:href="#DejaVuSans-6e" x="1722.457031"/>
     <use xlink:href="#DejaVuSans-74" x="1785.835938"/>
     <use xlink:href="#DejaVuSans-20" x="1825.044922"/>
     <use xlink:href="#DejaVuSans-52" x="1856.832031"/>
     <use xlink:href="#DejaVuSans-65" x="1921.814453"/>
     <use xlink:href="#DejaVuSans-70" x="1983.337891"/>
     <use xlink:href="#DejaVuSans-6f" x="2046.814453"/>
     <use xlink:href="#DejaVuSans-73" x="2107.996094"/>
     <use xlink:href="#DejaVuSans-69" x="2160.095703"/>
     <use xlink:href="#DejaVuSans-74" x="2187.878906"/>
     <use xlink:href="#DejaVuSans-6f" x="2227.087891"/>
     <use xlink:href="#DejaVuSans-72" x="2288.269531"/>
     <use xlink:href="#DejaVuSans-69" x="2329.382812"/>
     <use xlink:href="#DejaVuSans-65" x="2357.166016"/>
     <use xlink:href="#DejaVuSans-73" x="2418.689453"/>
    </g>
   </g>
   <g id="legend_1">
    <g id="patch_7">
     <path d="M 115 89.19625 
L 212.767188 89.19625 
Q 214.767188 89.19625 214.767188 87.19625 
L 214.767188 58.84 
Q 214.767188 56.84 212.767188 56.84 
L 115 56.84 
Q 113 56.84 113 58.84 
L 113 87.19625 
Q 113 89.19625 115 89.19625 
z
" style="fill: #ffffff; opacity: 0.8; stroke: #cccccc; stroke-linejoin: miter"/>
    </g>
    <g id="line2d_22">
     <path d="M 117 64.938437 
L 127 64.938437 
L 137 64.938437 
" style="fill: none; stroke: #1f77b4; stroke-width: 1.5; stroke-linecap: square"/>
    </g>
    <g id="text_23">
     <!-- fermyon/spin -->
     <g transform="translate(145 68.438437) scale(0.1 -0.1)">
      <defs>
       <path id="DejaVuSans-79" d="M 2059 -325 
Q 1816 -950 1584 -1140 
Q 1353 -1331 966 -1331 
L 506 -1331 
L 506 -850 
L 844 -850 
Q 1081 -850 1212 -737 
Q 1344 -625 1503 -206 
L 1606 56 
L 191 3500 
L 800 3500 
L 1894 763 
L 2988 3500 
L 3597 3500 
L 2059 -325 
z
" transform="scale(0.015625)"/>
       <path id="DejaVuSans-2f" d="M 1625 4666 
L 2156 4666 
L 531 -594 
L 0 -594 
L 1625 4666 
z
" transform="scale(0.015625)"/>
      </defs>
      <use xlink:href="#DejaVuSans-66"/>
      <use xlink:href="#DejaVuSans-65" x="35.205078"/>
      <use xlink:href="#DejaVuSans-72" x="96.728516"/>
      <use xlink:href="#DejaVuSans-6d" x="136.091797"/>
      <use xlink:href="#DejaVuSans-79" x="233.503906"/>
      <use xlink:href="#DejaVuSans-6f" x="292.683594"/>
      <use xlink:href="#DejaVuSans-6e" x="353.865234"/>
      <use xlink:href="#DejaVuSans-2f" x="417.244141"/>
      <use xlink:href="#DejaVuSans-73" x="450.935547"/>
      <use xlink:href="#DejaVuSans-70" x="503.035156"/>
      <use xlink:href="#DejaVuSans-69" x="566.511719"/>
      <use xlink:href="#DejaVuSans-6e" x="594.294922"/>
     </g>
    </g>
    <g id="line2d_23">
     <path d="M 117 79.616562 
L 127 79.616562 
L 137 79.616562 
" style="fill: none; stroke: #ff7f0e; stroke-width: 1.5; stroke-linecap: square"/>
    </g>
    <g id="text_24">
     <!-- cilium/cilium -->
     <g transform="translate(145 83.116562) scale(0.1 -0.1)">
      <defs>
       <path id="DejaVuSans-63" d="M 3122 3366 
L 3122 2828 
Q 2878 2963 2633 3030 
Q 2388 3097 2138 3097 
Q 1578 3097 1268 2742 
Q 959 2388 959 1747 
Q 959 1106 1268 751 
Q 1578 397 2138 397 
Q 2388 397 2633 464 
Q 2878 531 3122 666 
L 3122 134 
Q 2881 22 2623 -34 
Q 2366 -91 2075 -91 
Q 1284 -91 818 406 
Q 353 903 353 1747 
Q 353 2603 823 3093 
Q 1294 3584 2113 3584 
Q 2378 3584 2631 3529 
Q 2884 3475 3122 3366 
z
" transform="scale(0.015625)"/>
       <path id="DejaVuSans-6c" d="M 603 4863 
L 1178 4863 
L 1178 0 
L 603 0 
L 603 4863 
z
" transform="scale(0.015625)"/>
      </defs>
      <use xlink:href="#DejaVuSans-63"/>
      <use xlink:href="#DejaVuSans-69" x="54.980469"/>
      <use xlink:href="#DejaVuSans-6c" x="82.763672"/>
      <use xlink:href="#DejaVuSans-69" x="110.546875"/>
      <use xlink:href="#DejaVuSans-75" x="138.330078"/>
      <use xlink:href="#DejaVuSans-6d" x="201.708984"/>
      <use xlink:href="#DejaVuSans-2f" x="299.121094"/>
      <use xlink:href="#DejaVuSans-63" x="332.8125"/>
      <use xlink:href="#DejaVuSans-69" x="387.792969"/>
      <use xlink:href="#DejaVuSans-6c" x="415.576172"/>
      <use xlink:href="#DejaVuSans-69" x="443.359375"/>
      <use xlink:href="#DejaVuSans-75" x="471.142578"/>
      <use xlink:href="#DejaVuSans-6d" x="534.521484"/>
     </g>
    </g>
   </g>
  </g>
 </g>
 <defs>
  <clipPath id="p8ca97f3f84">
   <rect x="108" y="51.84" width="669.6" height="332.64"/>
  </clipPath>
 </defs>
</svg>
